<?xml version="1.0" encoding="UTF-8" standalone="no"?>
<svg
   xmlns:dc="http://purl.org/dc/elements/1.1/"
   xmlns:cc="http://creativecommons.org/ns#"
   xmlns:rdf="http://www.w3.org/1999/02/22-rdf-syntax-ns#"
   xmlns:svg="http://www.w3.org/2000/svg"
   xmlns="http://www.w3.org/2000/svg"
   version="1.1"
   id="svg2"
   width="48"
   viewBox="0 0 24 24"
   height="48"
   fill="#000000">
  <metadata
     id="metadata12">
    <rdf:RDF>
      <cc:Work
         rdf:about="">
        <dc:format>image/svg+xml</dc:format>
        <dc:type
           rdf:resource="http://purl.org/dc/dcmitype/StillImage" />
        <dc:title></dc:title>
      </cc:Work>
    </rdf:RDF>
  </metadata>
  <defs
     id="defs10">
    <mask
       id="mask4172"
       maskUnits="userSpaceOnUse">
      <rect
         y="0"
         x="0"
         height="24"
         width="12"
         id="rect4174"
         style="fill:#ffffff;fill-opacity:1;stroke:none" />
    </mask>
    <mask
       id="mask4178"
       maskUnits="userSpaceOnUse">
      <rect
         y="0"
         x="12"
         height="24"
         width="12"
         id="rect4180"
         style="fill:#ffffff;fill-opacity:1;stroke:none" />
    </mask>
  </defs>
  <path
     id="path4"
     fill="none"
     d="M0 0h24v24H0z" />
  <g
     transform="translate(-0.0072501,0)"
     id="g4182">
    <path
       transform="translate(0.0142501,0)"
       d="M 3.9,12 C 3.9,10.29 5.29,8.9 7,8.9 l 4,0 L 11,7 7,7 c -2.76,0 -5,2.24 -5,5 0,2.76 2.24,5 5,5 l 4,0 0,-1.9 -4,0 C 5.29,15.1 3.9,13.71 3.9,12 Z m 4.1,1 8,0 0,-2 -8,0 0,2 z m 9,-6 -4,0 0,1.9 4,0 c 1.71,0 3.1,1.39 3.1,3.1 0,1.71 -1.39,3.1 -3.1,3.1 l -4,0 0,1.9 4,0 c 2.76,0 5,-2.24 5,-5 0,-2.76 -2.24,-5 -5,-5 z"
       id="path6"
       style="fill:#ededeb;fill-opacity:1"
       mask="url(#mask4178)" />
    <path
       d="m 3.8999998,11.999999 c 0,-1.709999 1.3900001,-3.0999993 3.1000001,-3.0999993 l 4.0000001,0 0,-1.9 -4.0000001,0 c -2.7600001,0 -5.0000001,2.24 -5.0000001,4.9999993 C 1.9999998,14.76 4.2399998,17 6.9999999,17 L 11,17 l 0,-1.9 -4.0000001,0 c -1.71,0 -3.1000001,-1.390001 -3.1000001,-3.100001 z m 4.1000001,1 8.0000001,0 0,-2 -8.0000001,0 0,2 z M 17,6.9999997 l -4,0 0,1.9 4,0 c 1.71,0 3.1,1.3900003 3.1,3.0999993 0,1.71 -1.39,3.100001 -3.1,3.100001 l -4,0 0,1.9 4,0 c 2.76,0 5,-2.24 5,-5.000001 0,-2.7599994 -2.24,-4.9999994 -5,-4.9999994 z"
       id="path6-1"
       style="fill:#ededeb;fill-opacity:1"
       mask="url(#mask4172)"
       transform="translate(0.0145002,2e-7)" />
  </g>
</svg>
