<?xml version="1.0" encoding="UTF-8" standalone="no"?>
<svg
   xmlns:dc="http://purl.org/dc/elements/1.1/"
   xmlns:cc="http://creativecommons.org/ns#"
   xmlns:rdf="http://www.w3.org/1999/02/22-rdf-syntax-ns#"
   xmlns:svg="http://www.w3.org/2000/svg"
   xmlns="http://www.w3.org/2000/svg"
   xmlns:sodipodi="http://sodipodi.sourceforge.net/DTD/sodipodi-0.dtd"
   xmlns:inkscape="http://www.inkscape.org/namespaces/inkscape"
   fill="#000000"
   height="48"
   viewBox="0 0 24 24"
   width="48"
   id="svg2"
   version="1.1"
   inkscape:version="0.91 r13725"
   sodipodi:docname="link-icon.svg">
  <metadata
     id="metadata12">
    <rdf:RDF>
      <cc:Work
         rdf:about="">
        <dc:format>image/svg+xml</dc:format>
        <dc:type
           rdf:resource="http://purl.org/dc/dcmitype/StillImage" />
        <dc:title></dc:title>
      </cc:Work>
    </rdf:RDF>
  </metadata>
  <defs
     id="defs10">
    <mask
       maskUnits="userSpaceOnUse"
       id="mask4172">
      <rect
         style="fill:#ffffff;fill-opacity:1;stroke:none"
         id="rect4174"
         width="12"
         height="24"
         x="0"
         y="0" />
    </mask>
    <mask
       maskUnits="userSpaceOnUse"
       id="mask4178">
      <rect
         style="fill:#ffffff;fill-opacity:1;stroke:none"
         id="rect4180"
         width="12"
         height="24"
         x="12"
         y="0" />
    </mask>
  </defs>
  <sodipodi:namedview
     pagecolor="#ffffff"
     bordercolor="#666666"
     borderopacity="1"
     objecttolerance="10"
     gridtolerance="10"
     guidetolerance="10"
     inkscape:pageopacity="0"
     inkscape:pageshadow="2"
     inkscape:window-width="1750"
     inkscape:window-height="741"
     id="namedview8"
     showgrid="false"
     inkscape:zoom="6.9532167"
     inkscape:cx="23.79661"
     inkscape:cy="28.779661"
     inkscape:window-x="0"
     inkscape:window-y="27"
     inkscape:window-maximized="0"
     inkscape:current-layer="svg2" />
  <path
     d="M0 0h24v24H0z"
     fill="none"
     id="path4" />
  <g
     id="g4182"
     transform="translate(-0.0072501,0)">
    <path
       mask="url(#mask4178)"
       style="fill:#333333;fill-opacity:1"
       id="path6"
       d="M 3.9,12 C 3.9,10.29 5.29,8.9 7,8.9 l 4,0 L 11,7 7,7 c -2.76,0 -5,2.24 -5,5 0,2.76 2.24,5 5,5 l 4,0 0,-1.9 -4,0 C 5.29,15.1 3.9,13.71 3.9,12 Z m 4.1,1 8,0 0,-2 -8,0 0,2 z m 9,-6 -4,0 0,1.9 4,0 c 1.71,0 3.1,1.39 3.1,3.1 0,1.71 -1.39,3.1 -3.1,3.1 l -4,0 0,1.9 4,0 c 2.76,0 5,-2.24 5,-5 0,-2.76 -2.24,-5 -5,-5 z"
       inkscape:connector-curvature="0" />
    <path
       transform="translate(0.0145002,2e-7)"
       mask="url(#mask4172)"
       style="fill:#ededeb;fill-opacity:1"
       id="path6-1"
       d="m 3.8999998,11.999999 c 0,-1.709999 1.3900001,-3.0999993 3.1000001,-3.0999993 l 4.0000001,0 0,-1.9 -4.0000001,0 c -2.7600001,0 -5.0000001,2.24 -5.0000001,4.9999993 C 1.9999998,14.76 4.2399998,17 6.9999999,17 L 11,17 l 0,-1.9 -4.0000001,0 c -1.71,0 -3.1000001,-1.390001 -3.1000001,-3.100001 z m 4.1000001,1 8.0000001,0 0,-2 -8.0000001,0 0,2 z M 17,6.9999997 l -4,0 0,1.9 4,0 c 1.71,0 3.1,1.3900003 3.1,3.0999993 0,1.71 -1.39,3.100001 -3.1,3.100001 l -4,0 0,1.9 4,0 c 2.76,0 5,-2.24 5,-5.000001 0,-2.7599994 -2.24,-4.9999994 -5,-4.9999994 z"
       inkscape:connector-curvature="0" />
  </g>
</svg>
