<?xml version="1.0" encoding="UTF-8" standalone="no"?>
<!-- Created with Inkscape (http://www.inkscape.org/) -->

<svg
   xmlns:dc="http://purl.org/dc/elements/1.1/"
   xmlns:cc="http://creativecommons.org/ns#"
   xmlns:rdf="http://www.w3.org/1999/02/22-rdf-syntax-ns#"
   xmlns:svg="http://www.w3.org/2000/svg"
   xmlns="http://www.w3.org/2000/svg"
   xmlns:sodipodi="http://sodipodi.sourceforge.net/DTD/sodipodi-0.dtd"
   xmlns:inkscape="http://www.inkscape.org/namespaces/inkscape"
   id="svg2"
   version="1.1"
   inkscape:version="0.91 r13725"
   xml:space="preserve"
   width="294"
   height="294"
   viewBox="0 0 293.99999 294"
   sodipodi:docname="physical-web-logo.svg"><metadata
     id="metadata8"><rdf:RDF><cc:Work
         rdf:about=""><dc:format>image/svg+xml</dc:format><dc:type
           rdf:resource="http://purl.org/dc/dcmitype/StillImage" /><dc:title></dc:title></cc:Work></rdf:RDF></metadata><defs
     id="defs6"><clipPath
       clipPathUnits="userSpaceOnUse"
       id="clipPath16"><path
         d="m 0,1000 1000,0 L 1000,0 0,0 0,1000 Z"
         id="path18"
         inkscape:connector-curvature="0" /></clipPath></defs><sodipodi:namedview
     pagecolor="#ffffff"
     bordercolor="#666666"
     borderopacity="1"
     objecttolerance="10"
     gridtolerance="10"
     guidetolerance="10"
     inkscape:pageopacity="0"
     inkscape:pageshadow="2"
     inkscape:window-width="1492"
     inkscape:window-height="783"
     id="namedview4"
     showgrid="false"
     fit-margin-top="20"
     fit-margin-left="20"
     fit-margin-right="20"
     fit-margin-bottom="20"
     inkscape:zoom="0.1888"
     inkscape:cx="121.08927"
     inkscape:cy="144.90888"
     inkscape:window-x="0"
     inkscape:window-y="27"
     inkscape:window-maximized="0"
     inkscape:current-layer="g10" /><g
     id="g10"
     inkscape:groupmode="layer"
     inkscape:label="Physical Web logo"
     transform="matrix(1.25,0,0,-1.25,-498.61413,774.09113)"><g
       id="g12"
       transform="translate(16.298004,0.669704)"
       style="fill:#333333;fill-opacity:1"><g
         id="g14"
         clip-path="url(#clipPath16)"
         style="fill:#333333;fill-opacity:1"><g
           id="g20"
           transform="translate(556.1075,516.6798)"
           style="fill:#333333;fill-opacity:1"><path
             d="m 0,0 c 0,30.831 -25.083,55.914 -55.914,55.914 -30.831,0 -55.914,-25.083 -55.914,-55.914 0,-17.165 7.781,-32.541 19.993,-42.805 l 9.933,9.933 c -9.697,7.677 -15.926,19.543 -15.926,32.872 0,23.149 18.765,41.914 41.914,41.914 C -32.766,41.914 -14,23.149 -14,0 c 0,-13.329 -6.229,-25.195 -15.927,-32.872 l 9.934,-9.933 C -7.781,-32.541 0,-17.165 0,0"
             style="fill:#333333;fill-opacity:1;fill-rule:nonzero;stroke:none"
             id="path22"
             inkscape:connector-curvature="0" /></g><g
           id="g24"
           transform="translate(428.8913,516.6315)"
           style="fill:#333333;fill-opacity:1"><path
             d="m 0,0 c 0,39.316 31.986,71.302 71.302,71.302 39.316,0 71.302,-31.986 71.302,-71.302 0,-21.394 -9.484,-40.603 -24.455,-53.684 l 9.946,-9.945 c 17.489,15.621 28.509,38.334 28.509,63.629 0,47.111 -38.191,85.302 -85.302,85.302 C 24.191,85.302 -14,47.111 -14,0 c 0,-25.295 11.02,-48.008 28.509,-63.629 l 9.946,9.945 C 9.485,-40.603 0,-21.394 0,0"
             style="fill:#333333;fill-opacity:1;fill-rule:nonzero;stroke:none"
             id="path26"
             inkscape:connector-curvature="0" /></g><g
           id="g28"
           transform="translate(504.0875,401.6479)"
           style="fill:#333333;fill-opacity:1"><path
             d="M 0,0 C -2.1,-2.1 -5.537,-2.1 -7.637,0 L -43.4,35.763 c -2.1,2.101 -2.1,5.537 0,7.637 l 35.763,35.764 c 2.1,2.1 5.537,2.1 7.637,0 L 35.763,43.4 c 2.101,-2.1 2.101,-5.536 0,-7.637 L 0,0 Z"
             style="fill:#333333;fill-opacity:1;fill-rule:nonzero;stroke:none"
             id="path30"
             inkscape:connector-curvature="0" /></g></g></g></g></svg>