<?xml version="1.0" encoding="UTF-8" standalone="no"?>
<svg
   xmlns:dc="http://purl.org/dc/elements/1.1/"
   xmlns:cc="http://creativecommons.org/ns#"
   xmlns:rdf="http://www.w3.org/1999/02/22-rdf-syntax-ns#"
   xmlns:svg="http://www.w3.org/2000/svg"
   xmlns="http://www.w3.org/2000/svg"
   xmlns:sodipodi="http://sodipodi.sourceforge.net/DTD/sodipodi-0.dtd"
   xmlns:inkscape="http://www.inkscape.org/namespaces/inkscape"
   version="1.1"
   id="svg4177"
   viewBox="0 0 180 110"
   height="110"
   width="180"
   inkscape:version="0.91 r13725"
   sodipodi:docname="sw-diagram-webpage-icons.svg">
  <sodipodi:namedview
     pagecolor="#ffffff"
     bordercolor="#666666"
     borderopacity="1"
     objecttolerance="10"
     gridtolerance="10"
     guidetolerance="10"
     inkscape:pageopacity="0"
     inkscape:pageshadow="2"
     inkscape:window-width="1382"
     inkscape:window-height="855"
     id="namedview17"
     showgrid="false"
     inkscape:zoom="1.6777778"
     inkscape:cx="90"
     inkscape:cy="55"
     inkscape:window-x="0"
     inkscape:window-y="27"
     inkscape:window-maximized="0"
     inkscape:current-layer="g4805" />
  <defs
     id="defs4179" />
  <metadata
     id="metadata4182">
    <rdf:RDF>
      <cc:Work
         rdf:about="">
        <dc:format>image/svg+xml</dc:format>
        <dc:type
           rdf:resource="http://purl.org/dc/dcmitype/StillImage" />
        <dc:title />
      </cc:Work>
    </rdf:RDF>
  </metadata>
  <g
     transform="translate(0,-942.36216)"
     id="layer1">
    <g
       transform="translate(10.999999,90.583331)"
       id="g4855">
      <g
         style="fill:#000000"
         id="g4737"
         transform="matrix(3.5,0,0,3.5,0,864.86216)">
        <path
           id="path4727"
           d="M 20,4 4,4 C 2.9,4 2.01,4.9 2.01,6 L 2,18 c 0,1.1 0.9,2 2,2 l 16,0 c 1.1,0 2,-0.9 2,-2 L 22,6 C 22,4.9 21.1,4 20,4 Z m -5,14 -11,0 0,-4 11,0 0,4 z m 0,-5 -11,0 0,-4 11,0 0,4 z m 5,5 -4,0 0,-9 4,0 0,9 z"
           style="fill:#ededeb;fill-opacity:0.99607843" />
        <path
           id="path4729"
           d="M 0,0 24,0 24,24 0,24 Z"
           style="fill:none" />
      </g>
      <g
         transform="matrix(1.1666667,0,0,1.1666667,-45.000004,-209.89373)"
         id="g4797">
        <g
           style="fill:#000000"
           id="g4799"
           transform="matrix(2,0,0,2,126,911.21931)">
          <path
             id="path4801"
             d="M 0,0 24,0 24,24 0,24 Z"
             style="fill:none" />
          <path
             id="path4803"
             d="M 20,11 7.83,11 13.42,5.41 12,4 4,12 12,20 13.41,18.59 7.83,13 20,13 20,11 Z"
             style="fill:#ededeb;fill-opacity:0.99607843" />
        </g>
        <g
           style="fill:#000000"
           id="g4805"
           transform="matrix(2,0,0,2,126,955.07645)">
          <path
             id="path4807"
             d="M 0,0 24,0 24,24 0,24 Z"
             style="fill:none" />
          <path
             id="path4809"
             d="M 12,4 10.59,5.41 16.17,11 4,11 4,13 16.17,13 10.59,18.59 12,20 20,12 Z"
             style="fill:#ededeb;fill-opacity:0.99607843" />
        </g>
      </g>
    </g>
  </g>
</svg>
