<?xml version="1.0" encoding="UTF-8" standalone="no"?>
<svg
   xmlns:dc="http://purl.org/dc/elements/1.1/"
   xmlns:cc="http://creativecommons.org/ns#"
   xmlns:rdf="http://www.w3.org/1999/02/22-rdf-syntax-ns#"
   xmlns:svg="http://www.w3.org/2000/svg"
   xmlns="http://www.w3.org/2000/svg"
   xmlns:sodipodi="http://sodipodi.sourceforge.net/DTD/sodipodi-0.dtd"
   xmlns:inkscape="http://www.inkscape.org/namespaces/inkscape"
   version="1.1"
   id="svg4177"
   viewBox="0 0 180 110"
   height="110"
   width="180"
   inkscape:version="0.91 r13725"
   sodipodi:docname="sw-diagram-sw-icons.svg">
  <sodipodi:namedview
     pagecolor="#ffffff"
     bordercolor="#666666"
     borderopacity="1"
     objecttolerance="10"
     gridtolerance="10"
     guidetolerance="10"
     inkscape:pageopacity="0"
     inkscape:pageshadow="2"
     inkscape:window-width="1054"
     inkscape:window-height="769"
     id="namedview17"
     showgrid="false"
     inkscape:zoom="1.6777778"
     inkscape:cx="90"
     inkscape:cy="55"
     inkscape:window-x="0"
     inkscape:window-y="27"
     inkscape:window-maximized="0"
     inkscape:current-layer="g4785" />
  <defs
     id="defs4179" />
  <metadata
     id="metadata4182">
    <rdf:RDF>
      <cc:Work
         rdf:about="">
        <dc:format>image/svg+xml</dc:format>
        <dc:type
           rdf:resource="http://purl.org/dc/dcmitype/StillImage" />
        <dc:title />
      </cc:Work>
    </rdf:RDF>
  </metadata>
  <g
     transform="translate(0,-942.36216)"
     id="layer1">
    <g
       transform="translate(2.9999979,-1.4166986)"
       id="g4867">
      <g
         style="fill:#000000"
         id="g4753"
         transform="matrix(3.5,0,0,3.5,90,956.86216)">
        <path
           id="path4743"
           d="M 0,0 24,0 24,24 0,24 Z"
           style="fill:none" />
        <path
           id="path4745"
           d="m 19.43,12.98 c 0.04,-0.32 0.07,-0.64 0.07,-0.98 0,-0.34 -0.03,-0.66 -0.07,-0.98 l 2.11,-1.65 c 0.19,-0.15 0.24,-0.42 0.12,-0.64 l -2,-3.46 C 19.54,5.05 19.27,4.97 19.05,5.05 l -2.49,1 C 16.04,5.65 15.48,5.32 14.87,5.07 L 14.49,2.42 C 14.46,2.18 14.25,2 14,2 L 10,2 C 9.75,2 9.54,2.18 9.51,2.42 L 9.13,5.07 C 8.52,5.32 7.96,5.66 7.44,6.05 l -2.49,-1 C 4.72,4.96 4.46,5.05 4.34,5.27 l -2,3.46 C 2.21,8.95 2.27,9.22 2.46,9.37 l 2.11,1.65 C 4.53,11.34 4.5,11.67 4.5,12 c 0,0.33 0.03,0.66 0.07,0.98 l -2.11,1.65 c -0.19,0.15 -0.24,0.42 -0.12,0.64 l 2,3.46 c 0.12,0.22 0.39,0.3 0.61,0.22 l 2.49,-1 c 0.52,0.4 1.08,0.73 1.69,0.98 l 0.38,2.65 C 9.54,21.82 9.75,22 10,22 l 4,0 c 0.25,0 0.46,-0.18 0.49,-0.42 l 0.38,-2.65 c 0.61,-0.25 1.17,-0.59 1.69,-0.98 l 2.49,1 c 0.23,0.09 0.49,0 0.61,-0.22 l 2,-3.46 c 0.12,-0.22 0.07,-0.49 -0.12,-0.64 L 19.43,12.98 Z M 12,15.5 c -1.93,0 -3.5,-1.57 -3.5,-3.5 0,-1.93 1.57,-3.5 3.5,-3.5 1.93,0 3.5,1.57 3.5,3.5 0,1.93 -1.57,3.5 -3.5,3.5 z"
           style="fill:#333333;fill-opacity:1" />
      </g>
      <g
         id="g4789"
         transform="matrix(1.1666667,0,0,1.1666667,-147,-117.8937)">
        <g
           transform="matrix(2,0,0,2,126,911.21931)"
           id="g4769"
           style="fill:#000000">
          <path
             style="fill:none"
             d="M 0,0 24,0 24,24 0,24 Z"
             id="path4759" />
          <path
             d="M 20,11 7.83,11 13.42,5.41 12,4 4,12 12,20 13.41,18.59 7.83,13 20,13 20,11 Z"
             id="path4761"
             style="fill:#333333;fill-opacity:1" />
        </g>
        <g
           transform="matrix(2,0,0,2,126,955.07645)"
           id="g4785"
           style="fill:#000000">
          <path
             style="fill:none"
             d="M 0,0 24,0 24,24 0,24 Z"
             id="path4775" />
          <path
             d="M 12,4 10.59,5.41 16.17,11 4,11 4,13 16.17,13 10.59,18.59 12,20 20,12 Z"
             id="path4777"
             style="fill:#333333;fill-opacity:1" />
        </g>
      </g>
    </g>
  </g>
</svg>
